<mxfile host="app.diagrams.net" agent="Mozilla/5.0 (Windows NT 10.0; Win64; x64) AppleWebKit/537.36 (KHTML, like Gecko) Chrome/129.0.0.0 Safari/537.36 Edg/129.0.0.0" version="24.7.17">
  <diagram name="Page-1" id="JS4hY-DCPfgcbFBMCWif">
    <mxGraphModel dx="941" dy="565" grid="1" gridSize="10" guides="1" tooltips="1" connect="1" arrows="1" fold="1" page="1" pageScale="1" pageWidth="850" pageHeight="1100" math="0" shadow="0">
      <root>
        <mxCell id="0" />
        <mxCell id="1" parent="0" />
        <mxCell id="Dqfq3a4igvNBm6AjK129-1" value="" style="image;points=[];aspect=fixed;html=1;align=center;shadow=0;dashed=0;image=img/lib/allied_telesis/computer_and_terminals/Personal_Computer.svg;" vertex="1" parent="1">
          <mxGeometry x="260" y="200" width="60" height="81.31" as="geometry" />
        </mxCell>
        <mxCell id="Dqfq3a4igvNBm6AjK129-2" value="" style="image;points=[];aspect=fixed;html=1;align=center;shadow=0;dashed=0;image=img/lib/allied_telesis/computer_and_terminals/Personal_Computer.svg;" vertex="1" parent="1">
          <mxGeometry x="50" y="200" width="60" height="81.31" as="geometry" />
        </mxCell>
        <mxCell id="Dqfq3a4igvNBm6AjK129-3" value="" style="verticalLabelPosition=bottom;sketch=0;aspect=fixed;html=1;verticalAlign=top;strokeColor=none;align=center;outlineConnect=0;shape=mxgraph.citrix.dns_server;" vertex="1" parent="1">
          <mxGeometry x="160" y="410" width="66.16" height="80" as="geometry" />
        </mxCell>
        <mxCell id="Dqfq3a4igvNBm6AjK129-5" value="&lt;b&gt;&lt;span style=&quot;line-height: 107%;&quot;&gt;&lt;font style=&quot;font-size: 12px;&quot; face=&quot;Times New Roman&quot;&gt;Tracker&lt;/font&gt;&lt;/span&gt;&lt;/b&gt;" style="swimlane;fontStyle=0;childLayout=stackLayout;horizontal=1;startSize=30;horizontalStack=0;resizeParent=1;resizeParentMax=0;resizeLast=0;collapsible=1;marginBottom=0;whiteSpace=wrap;html=1;" vertex="1" parent="1">
          <mxGeometry x="260" y="450" width="150" height="90" as="geometry" />
        </mxCell>
        <mxCell id="Dqfq3a4igvNBm6AjK129-6" value="- List&amp;lt;List&amp;lt;pieces&amp;gt;&amp;gt; files" style="text;strokeColor=none;fillColor=none;align=left;verticalAlign=middle;spacingLeft=4;spacingRight=4;overflow=hidden;points=[[0,0.5],[1,0.5]];portConstraint=eastwest;rotatable=0;whiteSpace=wrap;html=1;" vertex="1" parent="Dqfq3a4igvNBm6AjK129-5">
          <mxGeometry y="30" width="150" height="30" as="geometry" />
        </mxCell>
        <mxCell id="Dqfq3a4igvNBm6AjK129-7" value="- List&amp;lt;Peer&amp;gt;" style="text;strokeColor=none;fillColor=none;align=left;verticalAlign=middle;spacingLeft=4;spacingRight=4;overflow=hidden;points=[[0,0.5],[1,0.5]];portConstraint=eastwest;rotatable=0;whiteSpace=wrap;html=1;" vertex="1" parent="Dqfq3a4igvNBm6AjK129-5">
          <mxGeometry y="60" width="150" height="30" as="geometry" />
        </mxCell>
        <mxCell id="Dqfq3a4igvNBm6AjK129-9" value="" style="endArrow=classic;html=1;rounded=0;" edge="1" parent="1">
          <mxGeometry width="50" height="50" relative="1" as="geometry">
            <mxPoint x="230" y="470" as="sourcePoint" />
            <mxPoint x="259" y="470" as="targetPoint" />
          </mxGeometry>
        </mxCell>
        <mxCell id="Dqfq3a4igvNBm6AjK129-10" value="" style="endArrow=classic;html=1;rounded=0;exitX=1;exitY=0.5;exitDx=0;exitDy=0;" edge="1" parent="1" source="Dqfq3a4igvNBm6AjK129-7" target="Dqfq3a4igvNBm6AjK129-11">
          <mxGeometry width="50" height="50" relative="1" as="geometry">
            <mxPoint x="490" y="510" as="sourcePoint" />
            <mxPoint x="440" y="510" as="targetPoint" />
          </mxGeometry>
        </mxCell>
        <mxCell id="Dqfq3a4igvNBm6AjK129-11" value="&lt;span style=&quot;line-height: 107%;&quot;&gt;&lt;font style=&quot;font-size: 12px;&quot;&gt;Seeder&amp;nbsp;&lt;/font&gt;&lt;/span&gt;" style="text;html=1;align=center;verticalAlign=middle;whiteSpace=wrap;rounded=0;" vertex="1" parent="1">
          <mxGeometry x="460" y="500" width="60" height="20" as="geometry" />
        </mxCell>
        <mxCell id="Dqfq3a4igvNBm6AjK129-12" value="" style="endArrow=classic;html=1;rounded=0;exitX=1;exitY=0.5;exitDx=0;exitDy=0;" edge="1" parent="1" target="Dqfq3a4igvNBm6AjK129-13" source="Dqfq3a4igvNBm6AjK129-7">
          <mxGeometry width="50" height="50" relative="1" as="geometry">
            <mxPoint x="380" y="565" as="sourcePoint" />
            <mxPoint x="430" y="560" as="targetPoint" />
          </mxGeometry>
        </mxCell>
        <mxCell id="Dqfq3a4igvNBm6AjK129-13" value="&lt;span style=&quot;line-height: 107%;&quot;&gt;&lt;font style=&quot;font-size: 12px;&quot;&gt;Leecher&lt;/font&gt;&lt;/span&gt;" style="text;html=1;align=center;verticalAlign=middle;whiteSpace=wrap;rounded=0;" vertex="1" parent="1">
          <mxGeometry x="460" y="540" width="60" height="20" as="geometry" />
        </mxCell>
        <mxCell id="Dqfq3a4igvNBm6AjK129-14" value="&lt;span style=&quot;text-align: left;&quot;&gt;&lt;b&gt;Peer&lt;/b&gt;&lt;/span&gt;" style="swimlane;fontStyle=0;childLayout=stackLayout;horizontal=1;startSize=30;horizontalStack=0;resizeParent=1;resizeParentMax=0;resizeLast=0;collapsible=1;marginBottom=0;whiteSpace=wrap;html=1;" vertex="1" parent="1">
          <mxGeometry x="390" y="220" width="150" height="150" as="geometry" />
        </mxCell>
        <mxCell id="Dqfq3a4igvNBm6AjK129-15" value="- List&amp;lt;List&amp;lt;pieces&amp;gt;&amp;gt; files" style="text;strokeColor=none;fillColor=none;align=left;verticalAlign=middle;spacingLeft=4;spacingRight=4;overflow=hidden;points=[[0,0.5],[1,0.5]];portConstraint=eastwest;rotatable=0;whiteSpace=wrap;html=1;" vertex="1" parent="Dqfq3a4igvNBm6AjK129-14">
          <mxGeometry y="30" width="150" height="30" as="geometry" />
        </mxCell>
        <mxCell id="Dqfq3a4igvNBm6AjK129-16" value="&lt;font style=&quot;font-size: 12px;&quot;&gt;+&amp;nbsp;&lt;span style=&quot;line-height: 107%; font-family: &amp;quot;Times New Roman&amp;quot;, serif;&quot;&gt;Downloading Module&lt;/span&gt;&lt;/font&gt;" style="text;strokeColor=none;fillColor=none;align=left;verticalAlign=middle;spacingLeft=4;spacingRight=4;overflow=hidden;points=[[0,0.5],[1,0.5]];portConstraint=eastwest;rotatable=0;whiteSpace=wrap;html=1;" vertex="1" parent="Dqfq3a4igvNBm6AjK129-14">
          <mxGeometry y="60" width="150" height="30" as="geometry" />
        </mxCell>
        <mxCell id="Dqfq3a4igvNBm6AjK129-18" value="&lt;font face=&quot;Times New Roman&quot; style=&quot;font-size: 12px;&quot;&gt;&lt;font style=&quot;&quot;&gt;+&amp;nbsp;&lt;/font&gt;&lt;span style=&quot;line-height: 107%;&quot;&gt;Uploading Module&lt;/span&gt;&lt;/font&gt;" style="text;strokeColor=none;fillColor=none;align=left;verticalAlign=middle;spacingLeft=4;spacingRight=4;overflow=hidden;points=[[0,0.5],[1,0.5]];portConstraint=eastwest;rotatable=0;whiteSpace=wrap;html=1;" vertex="1" parent="Dqfq3a4igvNBm6AjK129-14">
          <mxGeometry y="90" width="150" height="30" as="geometry" />
        </mxCell>
        <mxCell id="Dqfq3a4igvNBm6AjK129-23" value="&lt;font style=&quot;font-size: 12px;&quot; face=&quot;Times New Roman&quot;&gt;+&amp;nbsp;&lt;span style=&quot;line-height: 107%;&quot;&gt;Communication Module&lt;/span&gt;&lt;/font&gt;" style="text;strokeColor=none;fillColor=none;align=left;verticalAlign=middle;spacingLeft=4;spacingRight=4;overflow=hidden;points=[[0,0.5],[1,0.5]];portConstraint=eastwest;rotatable=0;whiteSpace=wrap;html=1;" vertex="1" parent="Dqfq3a4igvNBm6AjK129-14">
          <mxGeometry y="120" width="150" height="30" as="geometry" />
        </mxCell>
        <mxCell id="Dqfq3a4igvNBm6AjK129-17" value="" style="endArrow=classic;html=1;rounded=0;exitX=0.987;exitY=0.618;exitDx=0;exitDy=0;exitPerimeter=0;entryX=-0.003;entryY=0.223;entryDx=0;entryDy=0;entryPerimeter=0;" edge="1" parent="1" source="Dqfq3a4igvNBm6AjK129-1" target="Dqfq3a4igvNBm6AjK129-14">
          <mxGeometry width="50" height="50" relative="1" as="geometry">
            <mxPoint x="340" y="250" as="sourcePoint" />
            <mxPoint x="369" y="250" as="targetPoint" />
          </mxGeometry>
        </mxCell>
        <mxCell id="Dqfq3a4igvNBm6AjK129-24" value="" style="endArrow=classic;html=1;rounded=0;exitX=1;exitY=0.5;exitDx=0;exitDy=0;" edge="1" parent="1" target="Dqfq3a4igvNBm6AjK129-25">
          <mxGeometry width="50" height="50" relative="1" as="geometry">
            <mxPoint x="540" y="265" as="sourcePoint" />
            <mxPoint x="570" y="250" as="targetPoint" />
          </mxGeometry>
        </mxCell>
        <mxCell id="Dqfq3a4igvNBm6AjK129-25" value="in progress" style="text;html=1;align=center;verticalAlign=middle;whiteSpace=wrap;rounded=0;" vertex="1" parent="1">
          <mxGeometry x="590" y="240" width="70" height="20" as="geometry" />
        </mxCell>
        <mxCell id="Dqfq3a4igvNBm6AjK129-26" value="" style="endArrow=classic;html=1;rounded=0;exitX=1;exitY=0.5;exitDx=0;exitDy=0;" edge="1" parent="1" target="Dqfq3a4igvNBm6AjK129-27">
          <mxGeometry width="50" height="50" relative="1" as="geometry">
            <mxPoint x="540" y="265" as="sourcePoint" />
            <mxPoint x="560" y="300" as="targetPoint" />
          </mxGeometry>
        </mxCell>
        <mxCell id="Dqfq3a4igvNBm6AjK129-27" value="&lt;span style=&quot;line-height: 107%;&quot;&gt;&lt;font style=&quot;font-size: 12px;&quot;&gt;done&lt;/font&gt;&lt;/span&gt;" style="text;html=1;align=center;verticalAlign=middle;whiteSpace=wrap;rounded=0;" vertex="1" parent="1">
          <mxGeometry x="590" y="280" width="40" height="20" as="geometry" />
        </mxCell>
        <mxCell id="Dqfq3a4igvNBm6AjK129-28" value="" style="endArrow=none;dashed=1;html=1;rounded=0;entryX=0.589;entryY=0.979;entryDx=0;entryDy=0;entryPerimeter=0;" edge="1" parent="1" source="Dqfq3a4igvNBm6AjK129-3" target="Dqfq3a4igvNBm6AjK129-1">
          <mxGeometry width="50" height="50" relative="1" as="geometry">
            <mxPoint x="350" y="350" as="sourcePoint" />
            <mxPoint x="400" y="300" as="targetPoint" />
          </mxGeometry>
        </mxCell>
        <mxCell id="Dqfq3a4igvNBm6AjK129-29" value="" style="endArrow=none;dashed=1;html=1;rounded=0;" edge="1" parent="1" source="Dqfq3a4igvNBm6AjK129-3" target="Dqfq3a4igvNBm6AjK129-2">
          <mxGeometry width="50" height="50" relative="1" as="geometry">
            <mxPoint x="227" y="420" as="sourcePoint" />
            <mxPoint x="305" y="290" as="targetPoint" />
          </mxGeometry>
        </mxCell>
        <mxCell id="Dqfq3a4igvNBm6AjK129-31" value="" style="endArrow=none;dashed=1;html=1;rounded=0;" edge="1" parent="1" source="Dqfq3a4igvNBm6AjK129-2" target="Dqfq3a4igvNBm6AjK129-1">
          <mxGeometry width="50" height="50" relative="1" as="geometry">
            <mxPoint x="191" y="430" as="sourcePoint" />
            <mxPoint x="122" y="301" as="targetPoint" />
          </mxGeometry>
        </mxCell>
      </root>
    </mxGraphModel>
  </diagram>
</mxfile>
